<mxfile host="ac.draw.io" agent="Mozilla/5.0 (Macintosh; Intel Mac OS X 10_15_7) AppleWebKit/537.36 (KHTML, like Gecko) Chrome/130.0.0.0 Safari/537.36" version="24.8.4">
  <diagram id="voXYOjfdHj-zOWu9X1-M" name="Page-1">
    <mxGraphModel dx="1328" dy="758" grid="1" gridSize="10" guides="1" tooltips="1" connect="1" arrows="1" fold="1" page="1" pageScale="1" pageWidth="850" pageHeight="1100" math="0" shadow="0">
      <root>
        <mxCell id="0" />
        <mxCell id="1" parent="0" />
        <mxCell id="UxOK3szBRW2Rg1cLdktu-1" value="Geography&lt;div&gt;PE=True&lt;/div&gt;" style="rounded=1;whiteSpace=wrap;html=1;fillColor=#dae8fc;strokeColor=#6c8ebf;" parent="1" vertex="1">
          <mxGeometry x="360" y="360" width="120" height="60" as="geometry" />
        </mxCell>
        <mxCell id="UxOK3szBRW2Rg1cLdktu-2" value="Asset&lt;br&gt;&lt;div&gt;PE=False&lt;/div&gt;" style="rounded=1;whiteSpace=wrap;html=1;fillColor=#dae8fc;strokeColor=#6c8ebf;" parent="1" vertex="1">
          <mxGeometry x="500" y="440" width="120" height="60" as="geometry" />
        </mxCell>
        <mxCell id="UxOK3szBRW2Rg1cLdktu-3" value="" style="endArrow=classic;html=1;rounded=0;exitX=1;exitY=0.5;exitDx=0;exitDy=0;entryX=0.5;entryY=0;entryDx=0;entryDy=0;edgeStyle=orthogonalEdgeStyle;" parent="1" source="UxOK3szBRW2Rg1cLdktu-1" target="UxOK3szBRW2Rg1cLdktu-2" edge="1">
          <mxGeometry relative="1" as="geometry">
            <mxPoint x="370" y="390" as="sourcePoint" />
            <mxPoint x="470" y="390" as="targetPoint" />
          </mxGeometry>
        </mxCell>
        <mxCell id="UxOK3szBRW2Rg1cLdktu-4" value="PR= True&lt;div&gt;PH = False&lt;/div&gt;" style="edgeLabel;resizable=0;html=1;;align=center;verticalAlign=middle;" parent="UxOK3szBRW2Rg1cLdktu-3" connectable="0" vertex="1">
          <mxGeometry relative="1" as="geometry" />
        </mxCell>
        <mxCell id="UxOK3szBRW2Rg1cLdktu-5" value="&lt;div style=&quot;text-align: left;&quot;&gt;PE = Path Enabled Definition&lt;/div&gt;&lt;div style=&quot;text-align: left;&quot;&gt;PR = Path relation&lt;/div&gt;&lt;div style=&quot;text-align: left;&quot;&gt;PH = Is Path Hierarchy relation&lt;/div&gt;" style="text;html=1;align=center;verticalAlign=middle;whiteSpace=wrap;rounded=0;" parent="1" vertex="1">
          <mxGeometry x="165" y="435" width="260" height="70" as="geometry" />
        </mxCell>
      </root>
    </mxGraphModel>
  </diagram>
</mxfile>
